# Alias OBJ Model File
# Exported from SketchUp, (c) 2000-2012 Trimble Navigation Limited
# File units = millimeters

mtllib mymodels.mtl

g Mesh1 Model

usemtl Concrete_Block_Retaining_Gray
v -500 0 500
vt 0.82021 -1.64042
vn 0 -1 -0
v -500 0 -500
vt 0.82021 1.64042
v 500 0 -500
vt -0.82021 1.64042
v 500 0 500
vt -0.82021 -1.64042
f 1/1/1 2/2/1 3/3/1 4/4/1 

vt -0.82021 0
vn -1 0 -0
vt 0.82021 0
v -500 1000 500
vt 0.82021 3.28084
v -500 1000 -500
vt -0.82021 3.28084
f 2/5/2 1/6/2 5/7/2 6/8/2 

vn 0 0 1
v 500 1000 500
f 1/5/3 4/6/3 7/7/3 5/8/3 

vn 1 0 -0
v 500 1000 -500
f 4/5/4 3/6/4 8/7/4 7/8/4 

vn 0 0 -1
f 3/5/5 2/6/5 6/7/5 8/8/5 

vn 0 1 -0
f 6/3/6 5/4/6 7/1/6 8/2/6 

